Coordinates
version=1
nRows=13
nColumns=40
inDegrees=yes

Units are S.I. units (second, meters, Newtons, ...)
Angles are in degrees.

endheader
time	pelvis_tilt	pelvis_list	pelvis_rotation	pelvis_tx	pelvis_ty	pelvis_tz	hip_flexion_r	hip_adduction_r	hip_rotation_r	knee_angle_r	knee_angle_r_beta	ankle_angle_r	subtalar_angle_r	mtp_angle_r	hip_flexion_l	hip_adduction_l	hip_rotation_l	knee_angle_l	knee_angle_l_beta	ankle_angle_l	subtalar_angle_l	mtp_angle_l	lumbar_extension	lumbar_bending	lumbar_rotation	arm_flex_r	arm_add_r	arm_rot_r	elbow_flex_r	pro_sup_r	wrist_flex_r	wrist_dev_r	arm_flex_l	arm_add_l	arm_rot_l	elbow_flex_l	pro_sup_l	wrist_flex_l	wrist_dev_l
     46.81500000	     -4.82366597	     -5.82186586	      0.85669435	      0.95496204	      0.91268901	      0.51935835	     25.70601007	      2.52935174	    -15.66649079	     25.44142316	     25.44142316	      7.07206062	     -2.79232631	     -2.06869746	     14.06496078	    -14.13059030	     -3.86227903	     54.64447105	     54.64447105	     14.21101213	    -18.50457566	      8.29264742	    -12.60684867	      6.27701038	      4.08251731	     -1.19668220	    -11.22575327	      0.04588033	     27.39857661	     45.83482363	      0.00000000	      0.00000000	     10.31133100	    -15.12335636	     -0.19879428	     92.93423462	     47.62593511	      0.00000000	      0.00000000
     46.82628571	     -4.72474678	     -5.99185728	      1.15125320	      0.95473980	      0.91418765	      0.52152985	     24.77577491	      2.81607609	    -16.07579013	     24.94845177	     24.94845177	      7.59242604	     -2.30143657	     -2.15039065	     16.18681155	    -14.62444244	     -3.16256192	     58.10060459	     58.10060459	     14.01017192	    -18.70995147	     11.35989995	    -12.64635728	      6.36736922	      4.09377369	      0.37584846	    -11.54373978	     -0.10362803	     28.15791446	     45.84876066	      0.00000000	      0.00000000	      9.32490807	    -14.46567896	      0.05897580	     89.31251501	     47.58025724	      0.00000000	      0.00000000
     46.83757143	     -4.65835909	     -6.17580216	      1.45956983	      0.95432411	      0.91567248	      0.52363453	     23.83679984	      3.14278218	    -16.49403424	     24.32828822	     24.32828822	      7.97744772	     -1.85840827	     -2.26959675	     18.27930272	    -15.13507684	     -2.53145887	     61.09834250	     61.09834250	     13.48374810	    -18.91814400	     12.73379725	    -12.65000890	      6.46728081	      3.86979946	      2.18099685	    -11.84832817	     -0.22119858	     29.03773487	     45.84373306	      0.00000000	      0.00000000	      8.14323716	    -13.98777808	      0.21870067	     85.77089127	     47.51580633	      0.00000000	      0.00000000
     46.84885714	     -4.68967739	     -6.36389568	      1.73392604	      0.95362222	      0.91699442	      0.52561031	     23.00617470	      3.48631511	    -16.89280564	     23.66099708	     23.66099708	      8.26154262	     -1.43294143	     -2.49585199	     20.52443712	    -15.54477241	     -1.82052018	     63.87422678	     63.87422678	     13.59074870	    -19.01545323	     15.03738475	    -12.53042929	      6.58803677	      4.27194357	      3.60968332	    -12.33750463	     -0.31436674	     29.94020600	     45.83609319	      0.00000000	      0.00000000	      7.69033065	    -12.90167034	      0.25729275	     81.19816981	     47.45439673	      0.00000000	      0.00000000
     46.86014286	     -4.74289614	     -6.61401494	      2.00604688	      0.95276527	      0.91817215	      0.52758563	     22.19616714	      3.93546282	    -17.21981834	     22.93603800	     22.93603800	      8.54536716	     -1.13793930	     -2.51028492	     22.70819043	    -16.02057355	     -1.15407083	     66.17802962	     66.17802962	     13.28915597	    -19.10928422	     15.23373237	    -12.46357340	      6.72276547	      4.06717427	      5.48627566	    -12.68473625	     -0.46562832	     30.92973042	     45.82279541	      0.00000000	      0.00000000	      6.17464386	    -12.66746684	      0.61396943	     78.73346137	     47.38318876	      0.00000000	      0.00000000
     46.87142857	     -4.76120007	     -6.67222924	      2.21858860	      0.95179711	      0.91955825	      0.52936710	     21.33752988	      4.19533263	    -17.43873199	     22.20161184	     22.20161184	      8.71712554	     -0.75878642	     -2.74328226	     24.75973708	    -16.16186839	     -0.52240761	     68.09415813	     68.09415813	     13.53635094	    -19.15481191	     16.67520153	    -12.33813647	      6.70075971	      4.43993615	      6.99015647	    -13.20808748	     -0.50248082	     32.23692332	     45.79016092	      0.00000000	      0.00000000	      6.21746750	    -11.50343809	      0.23348638	     72.53407757	     47.31746541	      0.00000000	      0.00000000
     46.88271429	     -4.88924557	     -6.87652524	      2.45497088	      0.95065173	      0.92055998	      0.53115306	     20.62570833	      4.62054632	    -17.66496033	     21.46065896	     21.46065896	      8.93149745	     -0.51523064	     -2.72702580	     26.92730045	    -16.41350744	      0.19930263	     69.65073597	     69.65073597	     13.45476296	    -19.17354186	     16.69439618	    -12.18147088	      6.78532528	      4.25481231	      8.90007772	    -13.52799620	     -0.66515171	     33.44936055	     45.76750417	      0.00000000	      0.00000000	      4.76552047	    -11.32500882	      0.51379975	     69.86931648	     47.24625438	      0.00000000	      0.00000000
     46.89400000	     -4.92247158	     -6.84655621	      2.59400392	      0.94945285	      0.92182078	      0.53268127	     19.84812419	      4.79624748	    -17.74031114	     20.81352795	     20.81352795	      9.07204168	     -0.23523942	     -2.90663699	     28.79689079	    -16.35237503	      0.72670541	     70.74662417	     70.74662417	     13.65410374	    -19.18336781	     17.32977276	    -12.09446979	      6.66213535	      4.93302459	     10.19724047	    -14.26760369	     -0.65731149	     35.27822087	     45.70838859	      0.00000000	      0.00000000	      5.13133375	    -10.08950189	      0.07202391	     63.24108856	     47.18545553	      0.00000000	      0.00000000
     46.90528571	     -4.98164184	     -6.85788713	      2.75407282	      0.94819647	      0.92288363	      0.53411418	     19.12433705	      5.00565616	    -17.83139639	     20.20058173	     20.20058173	      9.27344162	      0.01921815	     -2.95492796	     30.63000406	    -16.28601438	      1.28061639	     71.46889767	     71.46889767	     13.62954683	    -19.17243363	     17.31290713	    -12.01858453	      6.57005375	      5.17964531	     11.74829862	    -14.84170166	     -0.74057262	     37.30419390	     45.64893707	      0.00000000	      0.00000000	      4.62613432	     -9.51362069	      0.01814596	     58.54747044	     47.11991294	      0.00000000	      0.00000000
     46.91657143	     -4.98550555	     -6.81262053	      2.89442395	      0.94692232	      0.92393680	      0.53538996	     18.35483391	      5.15292069	    -17.87822741	     19.62027638	     19.62027638	      9.48242455	      0.28648787	     -2.91787272	     32.27981689	    -16.13530901	      1.74854346	     71.81314586	     71.81314586	     13.56147120	    -19.16401237	     17.13005093	    -12.02909508	      6.41666264	      5.07787474	     13.66701309	    -15.19108386	     -0.80536429	     39.10565832	     45.59867254	      0.00000000	      0.00000000	      3.66895257	     -9.24538070	     -0.02118102	     54.69038200	     47.06179100	      0.00000000	      0.00000000
     46.92785714	     -5.05000579	     -6.79674896	      3.03245697	      0.94562269	      0.92482193	      0.53652674	     17.68780512	      5.29991442	    -17.98108085	     19.10835710	     19.10835710	      9.74317189	      0.59014386	     -2.88039968	     33.89326462	    -15.97682146	      2.20779083	     71.78589736	     71.78589736	     13.37543747	    -19.13226874	     16.89306399	    -11.93836030	      6.32192266	      5.55400556	     15.11424326	    -15.94625462	     -0.65933668	     41.29837530	     45.52286906	      0.00000000	      0.00000000	      3.49378048	     -8.52599758	     -0.45634881	     49.49712035	     47.02408429	      0.00000000	      0.00000000
     46.93914286	     -5.03603588	     -6.74069487	      3.16508996	      0.94434224	      0.92568562	      0.53747704	     16.95716175	      5.39426512	    -18.05641437	     18.64767854	     18.64767854	     10.03893398	      0.91994365	     -2.80668887	     35.29039868	    -15.77083267	      2.57877572	     71.41974623	     71.41974623	     13.16093862	    -19.11652349	     16.68688030	    -11.96023774	      6.19938515	      5.70306122	     16.79303423	    -16.50036929	     -0.55031431	     43.63777350	     45.44839690	      0.00000000	      0.00000000	      2.87385480	     -8.12677435	     -0.77816443	     45.25974605	     46.98084081	      0.00000000	      0.00000000
     46.95042857	     -4.98933910	     -6.70620895	      3.30749521	      0.94307336	      0.92645114	      0.53832886	     16.20209618	      5.51268291	    -18.10052005	     18.19224518	     18.19224518	     10.29786823	      1.17924125	     -2.77072450	     36.55204624	    -15.57983051	      2.92271290	     70.75809544	     70.75809544	     12.95088432	    -19.09176833	     16.70037407	    -12.04430120	      6.10267143	      5.37437918	     19.05362896	    -16.59430465	     -0.70170962	     45.33733901	     45.40815012	      0.00000000	      0.00000000	      1.30929294	     -8.18823520	     -0.69694168	     43.06252345	     46.92878014	      0.00000000	      0.00000000
